<svg width="35" height="33" viewBox="0 0 35 33" fill="none" xmlns="http://www.w3.org/2000/svg">
<g id="ph:clock-bold">
<path id="Vector" d="M17.5 2.57812C14.5796 2.57813 11.7249 3.39463 9.29666 4.92438C6.86847 6.45414 4.97592 8.62844 3.85835 11.1723C2.74077 13.7162 2.44836 16.5154 3.0181 19.216C3.58783 21.9166 4.99412 24.3972 7.05913 26.3443C9.12414 28.2913 11.7551 29.6172 14.6194 30.1544C17.4836 30.6915 20.4525 30.4158 23.1506 29.3621C25.8486 28.3084 28.1547 26.524 29.7772 24.2346C31.3996 21.9451 32.2656 19.2535 32.2656 16.5C32.2613 12.8089 30.7042 9.27024 27.9361 6.66027C25.1679 4.0503 21.4148 2.58222 17.5 2.57812ZM17.5 27.3281C15.2286 27.3281 13.0082 26.6931 11.1196 25.5033C9.23103 24.3134 7.75905 22.6223 6.88983 20.6437C6.0206 18.6652 5.79317 16.488 6.2363 14.3875C6.67943 12.2871 7.77321 10.3577 9.37933 8.84336C10.9854 7.32902 13.0318 6.29774 15.2595 5.87993C17.4873 5.46213 19.7964 5.67656 21.8949 6.49612C23.9934 7.31567 25.787 8.70354 27.0489 10.4842C28.3108 12.2649 28.9844 14.3584 28.9844 16.5C28.9811 19.3709 27.7701 22.1232 25.6171 24.1532C23.4641 26.1833 20.5449 27.3251 17.5 27.3281ZM26.7969 16.5C26.7969 16.9103 26.624 17.3037 26.3164 17.5938C26.0087 17.8839 25.5914 18.0469 25.1563 18.0469H17.5C17.0649 18.0469 16.6476 17.8839 16.3399 17.5938C16.0322 17.3037 15.8594 16.9103 15.8594 16.5V9.28125C15.8594 8.87099 16.0322 8.47754 16.3399 8.18744C16.6476 7.89735 17.0649 7.73438 17.5 7.73438C17.9351 7.73438 18.3524 7.89735 18.6601 8.18744C18.9678 8.47754 19.1406 8.87099 19.1406 9.28125V14.9531H25.1563C25.5914 14.9531 26.0087 15.1161 26.3164 15.4062C26.624 15.6963 26.7969 16.0897 26.7969 16.5Z" fill="#301808"/>
</g>
</svg>
