<svg width="27" height="36" viewBox="0 0 27 36" fill="none" xmlns="http://www.w3.org/2000/svg">
<path id="Vector" d="M13.6667 16.7651C12.4235 16.7651 11.2312 16.3042 10.3521 15.4837C9.47305 14.6633 8.97919 13.5505 8.97919 12.3901C8.97919 11.2298 9.47305 10.117 10.3521 9.29654C11.2312 8.47607 12.4235 8.01514 13.6667 8.01514C14.9099 8.01514 16.1022 8.47607 16.9812 9.29654C17.8603 10.117 18.3542 11.2298 18.3542 12.3901C18.3542 12.9647 18.2329 13.5336 17.9974 14.0644C17.7618 14.5952 17.4165 15.0775 16.9812 15.4837C16.546 15.89 16.0292 16.2122 15.4605 16.4321C14.8918 16.652 14.2823 16.7651 13.6667 16.7651ZM13.6667 0.140137C10.1857 0.140137 6.84732 1.43076 4.38591 3.72808C1.9245 6.0254 0.541687 9.14123 0.541687 12.3901C0.541687 21.5776 13.6667 35.1401 13.6667 35.1401C13.6667 35.1401 26.7917 21.5776 26.7917 12.3901C26.7917 9.14123 25.4089 6.0254 22.9475 3.72808C20.486 1.43076 17.1477 0.140137 13.6667 0.140137Z" fill="#301808"/>
</svg>
